<svg xml:space="preserve" width="32" height="32" preserveAspectRatio="none" viewBox="0 0 128 128"><path fill="#CC191E" d="M128 112c0 8.8-7.2 16-16 16H16c-8.8 0-16-7.2-16-16V16C0 7.2 7.2 0 16 0h96c8.8 0 16 7.2 16 16z"></path><path fill="#FFF" d="M107.122 46.404s-.86-6.064-3.499-8.733c-3.348-3.506-7.098-3.523-8.816-3.728-12.312-.891-30.787-.891-30.787-.891h-.04s-18.474 0-30.787.891c-1.721.204-5.469.221-8.816 3.728-2.639 2.669-3.498 8.733-3.498 8.733S20 53.525 20 60.647v6.677c0 7.119.879 14.242.879 14.242s.859 6.062 3.498 8.732c3.348 3.508 7.745 3.396 9.702 3.764 7.041.676 29.922.885 29.922.885s18.49-.028 30.806-.918c1.721-.206 5.471-.223 8.817-3.729 2.64-2.672 3.499-8.733 3.499-8.733s.877-7.122.877-14.243v-6.677c0-7.122-.878-14.243-.878-14.243m-53.32 30.165-.003-27.038 26 13.565z"></path></svg>